<svg width="96" height="96" viewBox="0 0 96 96" fill="none" xmlns="http://www.w3.org/2000/svg">
<rect width="96" height="96" rx="16" fill="white"/>
<path d="M65.6895 48.1388C65.6895 52.8388 63.553 56.3286 60.0333 59.7568C57.26 62.1907 53.7574 63.7471 42.0136 69.1876V62.9278H41.7705C33.6457 62.9244 27 57.1445 27 49.013V48.1388C27 40.0073 33.6457 33.3533 41.767 33.3533H50.9224C59.0438 33.3533 65.6895 39.1331 65.6895 47.2681V48.1423V48.1388Z" fill="url(#paint0_linear_49_38881)"/>
<path d="M51.4909 50.7923C52.8712 50.7923 53.9903 49.6718 53.9903 48.2897C53.9903 46.9076 52.8712 45.7872 51.4909 45.7872C50.1105 45.7872 48.9915 46.9076 48.9915 48.2897C48.9915 49.6718 50.1105 50.7923 51.4909 50.7923Z" fill="white"/>
<path d="M41.1986 50.7923C42.579 50.7923 43.698 49.6719 43.698 48.2898C43.698 46.9076 42.579 45.7872 41.1986 45.7872C39.8182 45.7872 38.6992 46.9076 38.6992 48.2898C38.6992 49.6719 39.8182 50.7923 41.1986 50.7923Z" fill="white"/>
<path d="M60.5298 37.4568V46.9047C60.5298 47.5046 61.0262 47.988 61.6357 47.988C62.2451 47.988 62.7416 47.5046 62.7416 46.9047V37.4568H60.5298Z" fill="#044B86"/>
<path d="M69.6474 37.1551L60.112 31.5776L50.6314 26.0309L50.6348 26.0103L50.604 26.0171L50.58 26L50.5732 26.0206L39.6785 27.7792L28.7222 29.5481L38.2576 35.1291L47.7382 40.6758L47.7348 40.6964L47.7656 40.6895L47.7896 40.7067L47.7964 40.6861L58.6911 38.9275L69.6474 37.1551Z" fill="#044B86"/>
<defs>
<linearGradient id="paint0_linear_49_38881" x1="28.6271" y1="34.387" x2="55.117" y2="66.49" gradientUnits="userSpaceOnUse">
<stop stop-color="#66CEA6"/>
<stop offset="1" stop-color="#0099B5"/>
</linearGradient>
</defs>
</svg>
